<svg xmlns="http://www.w3.org/2000/svg" width="28.208" height="17.95" viewBox="0 0 28.208 17.95">
  <g id="Path_201" data-name="Path 201" transform="translate(28.208 17.95) rotate(180)" fill="none">
    <path d="M12.6.689a2,2,0,0,1,3.017,0l12.1,13.95a2,2,0,0,1-1.509,3.311H2A2,2,0,0,1,.493,14.638Z" stroke="none"/>
    <path d="M 14.10391521453857 2.001876831054688 L 2.004024505615234 15.94902038574219 C 2.003879547119141 15.94918727874756 2.003738403320313 15.9493522644043 2.003597259521484 15.94951629638672 C 2.003631591796875 15.94959735870361 2.003667831420898 15.94967937469482 2.003704071044922 15.94976043701172 L 26.20434188842773 15.94976043701172 C 26.20437622070313 15.94968223571777 26.20441055297852 15.94960498809814 26.20444488525391 15.94952774047852 C 26.20429992675781 15.94935989379883 26.20415306091309 15.94919109344482 26.20400428771973 15.94902038574219 L 14.10391521453857 2.001876831054688 M 14.10402011871338 1.9073486328125e-06 C 14.65915775299072 1.9073486328125e-06 15.21429443359375 0.2295455932617188 15.61257457733154 0.6886310577392578 L 27.71472549438477 14.63839054107666 C 28.83797454833984 15.93311023712158 27.91924476623535 17.94976043701172 26.20617485046387 17.94976043701172 L 2.001874923706055 17.94976043701172 C 0.2887954711914063 17.94976043701172 -0.6299247741699219 15.93311023712158 0.4933147430419922 14.63839054107666 L 12.5954647064209 0.6886310577392578 C 12.99374485015869 0.2295455932617188 13.54888248443604 1.9073486328125e-06 14.10402011871338 1.9073486328125e-06 Z" stroke="none" fill="#3ba3fb"/>
  </g>
</svg>
