<svg width="199" height="483" viewBox="0 0 199 483" fill="none" xmlns="http://www.w3.org/2000/svg">
<path d="M89.0707 189.064C95.5924 189.064 101.847 186.445 106.459 181.783C111.07 177.12 113.661 170.797 113.661 164.204C113.661 157.611 111.07 151.287 106.459 146.625C101.847 141.963 95.5924 139.344 89.0707 139.344H86.0483V189.064H89.0707Z" fill="#E0E0E0"/>
<path d="M86.0487 189.052C99.6295 189.052 110.639 177.922 110.639 164.192C110.639 150.462 99.6295 139.332 86.0487 139.332C72.4679 139.332 61.4585 150.462 61.4585 164.192C61.4585 177.922 72.4679 189.052 86.0487 189.052Z" fill="#8CB0FF"/>
<path d="M84.9197 167.319C76.1867 167.319 67.8113 163.811 61.6361 157.568C55.4609 151.325 51.9917 142.858 51.9917 134.029V114.162C51.9917 113.333 52.3175 112.538 52.8976 111.951C53.4776 111.365 54.2643 111.036 55.0846 111.036C55.9049 111.036 56.6915 111.365 57.2716 111.951C57.8516 112.538 58.1775 113.333 58.1775 114.162V134.041C58.1837 141.207 61.0015 148.079 66.0128 153.147C71.0241 158.216 77.8194 161.067 84.9079 161.077C85.3294 161.051 85.7517 161.112 86.1488 161.257C86.5459 161.402 86.9095 161.627 87.2171 161.92C87.5247 162.212 87.7699 162.565 87.9374 162.957C88.105 163.349 88.1915 163.771 88.1915 164.198C88.1915 164.625 88.105 165.047 87.9374 165.439C87.7699 165.831 87.5247 166.184 87.2171 166.476C86.9095 166.768 86.5459 166.994 86.1488 167.139C85.7517 167.284 85.3294 167.345 84.9079 167.319H84.9197Z" fill="#407BFF"/>
<path d="M27.7427 131.663H82.4501C83.3251 131.663 84.1883 131.461 84.9734 131.07C85.7585 130.68 86.4445 130.112 86.9785 129.412C87.5125 128.711 87.8803 127.896 88.0534 127.029C88.2266 126.162 88.2006 125.266 87.9773 124.411L83.2734 106.304C82.9519 105.072 82.2368 103.982 81.2393 103.204C80.2419 102.426 79.0179 102.002 77.7579 102H32.4937C31.2322 102.002 30.0065 102.425 29.0071 103.203C28.0076 103.981 27.2903 105.071 26.9665 106.304L22.2625 124.411C22.0379 125.262 22.0092 126.155 22.1788 127.019C22.3485 127.884 22.7118 128.697 23.241 129.398C23.7702 130.098 24.4512 130.666 25.2316 131.059C26.0119 131.452 26.871 131.659 27.7427 131.663Z" fill="#43E8B2"/>
<path d="M20.2983 350.007C20.2983 350.007 20.8981 369.826 43.736 369.826C66.5739 369.826 67.1737 350.007 67.1737 350.007H20.2983Z" fill="#588BFF"/>
<path d="M55.8608 277.757H10.7024C5.89623 277.757 2 281.696 2 286.555V309.905C2 314.764 5.89623 318.703 10.7024 318.703H55.8608C60.667 318.703 64.5632 314.764 64.5632 309.905V286.555C64.5632 281.696 60.667 277.757 55.8608 277.757Z" fill="#F74545"/>
<path d="M61.6467 270.611H4.91649C3.30577 270.611 2 271.931 2 273.56V275.961C2 277.59 3.30577 278.91 4.91649 278.91H61.6467C63.2575 278.91 64.5632 277.59 64.5632 275.961V273.56C64.5632 271.931 63.2575 270.611 61.6467 270.611Z" fill="#F5F5F5"/>
<path d="M122.163 318.703H90.0703V337.82H122.163V318.703Z" fill="#0C9E35"/>
<path d="M122.163 369.766H90.0703V388.884H122.163V369.766Z" fill="#407BFF"/>
<path d="M110.58 436.084H116.507L116.507 337.832H110.58L110.58 436.084Z" fill="#79A3FF"/>
</svg>
