<svg width="1435" height="951" viewBox="0 0 1435 951" fill="none" xmlns="http://www.w3.org/2000/svg">
<path d="M130.641 935.533C130.641 935.533 -122.706 530.748 76.2094 282.632C372.28 -86.6644 573.779 438.172 687.829 220.971C876.491 -138.321 1493.69 -46.1152 1304.85 400.666C1205.78 635.066 1537.25 600.038 1402.11 936L130.641 935.533Z" fill="#EBF3FA"/>
<path d="M916.091 302.926C926.903 323.285 928.227 346.317 922.28 363.997C901.354 425.904 836.442 420.363 821.73 356.555C818.128 340.16 819.659 321.884 828.864 304.088C850.437 262.857 895.402 264.031 916.091 302.926V302.926ZM978.492 432.003L987.641 404.487L987.854 403.826C988.95 400.471 987.929 396.605 985.469 394.833L968.514 382.591C968.231 382.39 967.968 382.163 967.731 381.916C966.073 380.145 965.305 377.258 965.932 374.559C969.453 358.573 970.474 341.899 968.903 325.42C968.842 324.738 968.862 324.064 968.938 323.415C969.261 320.963 970.6 318.835 972.449 317.907L987.647 310.569C989.642 309.583 990.996 307.202 991.208 304.581C991.254 303.783 991.224 302.926 991.062 302.083L985.115 272.505C984.388 268.865 981.574 266.51 978.664 267.152L957.368 271.797C955.266 272.245 953.165 271.11 951.947 268.858C950.159 265.647 948.289 262.526 946.258 259.49C942.449 253.8 938.331 248.681 933.966 244.114L933.946 244.088C932.122 242.174 931.405 239.092 932.137 236.224L938.993 209.468L939.327 208.119C940.231 204.693 938.912 200.872 936.28 199.438L914.379 187.416C911.706 185.976 908.594 187.306 907.174 190.563L896.559 214.795C895.382 217.494 892.992 218.921 890.658 218.318C880.766 215.976 870.641 215.574 860.648 217.215C858.101 217.598 855.691 215.729 854.777 212.628L847.961 189.518C846.916 186.002 844.016 184.107 841.222 185.048L818.087 192.697C815.354 193.612 813.626 197.057 814.106 200.599L818.315 232.747C818.684 235.472 817.799 238.223 816.061 239.864C813.909 241.862 811.807 243.997 809.756 246.255C805.886 250.524 802.355 255.085 799.162 259.866C797.722 262.066 795.398 262.948 793.286 262.014L768.252 251.4C765.483 250.251 762.528 251.97 761.386 255.377L751.983 283.599C751.008 286.59 751.741 290.08 753.696 292.027C753.903 292.221 754.126 292.442 754.368 292.591L775.305 307.734C777.255 309.129 778.387 311.847 778.139 314.689C778.124 314.935 778.109 315.182 778.058 315.428C777.937 316.174 777.816 316.862 777.75 317.634C776.457 326.354 775.916 335.262 776.093 344.17C776.194 347.141 774.744 349.866 772.531 350.904L753.524 360.162C750.826 361.46 749.336 365.203 750.064 368.791L751.377 375.376L756.015 398.324C756.723 401.931 759.481 404.208 762.351 403.612L783.328 399.038C785.571 398.532 787.774 399.92 788.916 402.444C791.891 409.061 795.428 415.478 799.47 421.525C802.471 426.008 805.709 430.192 809.084 433.981L807.639 439.593L801.748 462.625C800.996 465.467 801.769 468.581 803.562 470.339C803.931 470.722 804.345 471.014 804.8 471.261L826.828 483.419C829.445 484.827 832.456 483.458 833.855 480.331L841.085 463.754C842.308 460.958 844.915 459.531 847.325 460.368C857.333 463.845 867.67 465.279 877.937 464.591C880.372 464.422 882.575 466.246 883.363 469.107L891.972 498.322C892.952 501.578 895.66 503.402 898.312 502.526L921.689 494.747C924.463 493.838 926.211 490.367 925.716 486.799L921.325 453.354C920.931 450.48 921.957 447.612 923.907 446.068C928.07 442.779 932.066 438.977 935.916 434.727C937.988 432.444 939.963 430.076 941.848 427.617C943.333 425.703 945.521 425.015 947.526 425.833L971.53 435.999C974.319 437.173 977.315 435.454 978.492 432.003" fill="#DFEDFB"/>
<path d="M592.124 561.228C597.383 574.392 601.077 589.34 602.825 606.026C603.229 609.556 603.345 613.565 603.32 617.763C603.027 635.884 598.783 657.819 592.543 671.424C544.678 775.366 430.386 747.008 415.31 629.526C415.081 627.592 414.852 625.659 414.664 623.686C412.824 605.332 417.354 577.071 424.54 561.065C428.324 552.677 432.538 545.131 437.055 538.397C482.485 471.358 562.119 486.26 592.124 561.228V561.228ZM680.584 808.202L701.586 761.963L702.082 760.853C704.608 755.202 703.461 748.046 699.404 744.205L671.409 717.631C670.944 717.19 670.52 716.71 670.141 716.204C667.504 712.59 666.64 707.244 668.221 702.631C677.24 675.259 681.933 645.94 681.994 616.238C682.009 615.006 682.161 613.812 682.408 612.69C683.403 608.42 686.147 605.021 689.597 603.905L717.85 595.211C721.558 594.024 724.372 590.19 725.201 585.603C725.423 584.195 725.524 582.67 725.378 581.12L719.936 526.9C719.28 520.237 714.692 515.255 709.407 515.566L670.793 517.733C666.989 517.928 663.452 515.319 661.679 510.973C659.061 504.757 656.283 498.685 653.201 492.722C647.421 481.524 640.995 471.26 634.033 461.905L634.002 461.853C631.097 457.941 630.354 452.257 632.158 447.378L648.957 401.827L649.78 399.524C651.983 393.698 650.296 386.542 645.87 383.239L609.069 355.653C604.568 352.338 598.818 353.81 595.731 359.182L572.688 399.18C570.131 403.631 565.64 405.48 561.608 403.747C544.446 396.767 526.535 393.159 508.514 393.231C503.926 393.179 499.965 389.176 498.884 383.408L490.78 340.432C489.533 333.886 484.713 329.708 479.59 330.571L437.191 337.552C432.179 338.402 428.516 344.033 428.749 350.443L430.663 408.73C430.845 413.667 428.799 418.3 425.429 420.72C421.261 423.659 417.163 426.838 413.133 430.27C405.524 436.751 398.463 443.83 391.961 451.42C389.026 454.911 384.754 455.806 381.158 453.548L338.549 427.558C333.834 424.736 328.286 426.948 325.675 432.67L304.097 480.09C301.843 485.125 302.542 491.522 305.682 495.538C306.01 495.947 306.365 496.401 306.775 496.738L341.324 529.593C344.548 532.623 346.085 537.78 345.158 542.75C345.089 543.185 345.019 543.626 344.882 544.048C344.537 545.332 344.206 546.526 343.957 547.876C340.151 562.979 337.644 578.648 336.423 594.51C336.084 599.818 333.037 604.242 328.929 605.456L293.585 616.472C288.573 618.003 285.277 624.231 285.948 630.804L287.143 642.865L291.401 684.932C292.032 691.543 296.539 696.377 301.74 696.124L339.777 693.996C343.843 693.73 347.518 696.831 349.11 701.638C353.247 714.231 358.409 726.643 364.545 738.522C369.099 747.339 374.12 755.689 379.456 763.383L375.921 772.934L361.476 812.153C359.646 816.98 360.483 822.728 363.364 826.355C363.951 827.153 364.634 827.789 365.4 828.353L402.408 856.218C406.808 859.462 412.395 857.899 415.416 852.741L431.123 825.375C433.776 820.762 438.651 818.965 442.794 821.145C459.951 830.176 478.064 835.665 496.414 837.378C500.764 837.773 504.356 841.634 505.26 846.947L515.491 901.27C516.668 907.336 521.165 911.339 526.025 910.548L568.873 903.405C573.956 902.581 577.659 896.91 577.397 890.442L575.396 829.806C575.184 824.584 577.508 819.795 581.236 817.609C589.194 812.957 596.949 807.339 604.517 800.896C608.589 797.432 612.51 793.786 616.284 789.971C619.245 786.993 623.256 786.389 626.671 788.42L667.534 813.314C672.273 816.188 677.891 813.995 680.584 808.202" fill="#D6E8FC"/>
<path d="M1356.43 807.287C1356.43 807.287 1303.72 804.679 1292.09 824.039C1292.09 824.039 1289.51 833.933 1281.59 842.951L1280.36 847.272C1280.36 847.272 1289.49 834.906 1292.75 834.16C1292.75 834.16 1287.65 810.181 1356.43 807.287Z" fill="#C8DBF4"/>
<path d="M1281.59 842.951C1281.59 842.951 1270.28 853.695 1269.49 872.886L1271.54 873.126C1271.54 873.126 1275.16 853.279 1281.69 845.513C1288.22 837.754 1281.59 842.951 1281.59 842.951" fill="#C8DBF4"/>
<path d="M1245.35 798.852C1245.35 798.852 1266.61 783.56 1256.69 762.812C1256.69 762.812 1248.75 750.07 1240.25 746.794C1240.25 746.794 1244.78 777.734 1240.25 778.467C1235.71 779.194 1237.13 743.517 1237.13 743.517C1237.13 743.517 1214.73 729.679 1205.95 730.775C1205.95 730.775 1219.83 760.989 1215.3 760.262C1210.77 759.536 1195.17 728.952 1195.17 728.952C1195.17 728.952 1172.21 723.489 1168.52 740.967C1164.84 758.439 1170.79 767.179 1174.19 768.268C1177.59 769.365 1199.42 769.002 1198.86 772.641C1198.29 776.281 1183.55 782.107 1175.32 778.831C1175.32 778.831 1184.4 807.592 1196.31 806.132C1208.21 804.678 1211.9 795.213 1219.27 794.486C1226.64 793.753 1232.03 796.303 1228.34 798.852C1224.65 801.402 1212.18 799.689 1206.23 806.19C1200.28 812.685 1195.46 816.694 1206.51 819.601C1217.57 822.514 1237.41 820.697 1241.38 809.771C1245.35 798.852 1245.35 798.852 1245.35 798.852" fill="#C8DBF4"/>
<path d="M1179.01 746.431C1179.01 746.431 1238.55 771.182 1245.35 798.853C1245.35 798.853 1245.06 811.232 1251.02 825.427V830.89C1251.02 830.89 1244.78 812.322 1241.38 809.772C1241.38 809.772 1254.7 785.747 1179.01 746.431Z" fill="#C8DBF4"/>
<path d="M1251.02 825.427C1251.02 825.427 1260.2 843.334 1254.97 865.126L1252.61 864.315C1252.61 864.315 1254.9 840.31 1250.1 828.237C1245.29 816.163 1251.02 825.427 1251.02 825.427" fill="#C8DBF4"/>
<path d="M1279.18 777.768C1279.18 777.768 1251.15 757.61 1264.23 730.257C1264.23 730.257 1274.69 713.46 1285.9 709.139C1285.9 709.139 1279.93 749.935 1285.9 750.889C1291.88 751.849 1290.01 704.818 1290.01 704.818C1290.01 704.818 1319.54 686.587 1331.13 688.027C1331.13 688.027 1312.81 727.856 1318.79 726.896C1324.77 725.936 1345.32 685.627 1345.32 685.627C1345.32 685.627 1375.6 678.425 1380.45 701.464C1385.31 724.496 1377.46 736.012 1372.98 737.452C1368.49 738.892 1339.72 738.412 1340.47 743.213C1341.21 748.014 1360.65 755.69 1371.48 751.369C1371.48 751.369 1359.52 789.284 1343.83 787.363C1328.13 785.443 1323.27 772.967 1313.56 772.007C1303.84 771.046 1296.74 774.407 1301.6 777.768C1306.46 781.122 1322.9 778.864 1330.75 787.435C1338.6 795.999 1344.95 801.28 1330.38 805.121C1315.8 808.962 1289.64 806.561 1284.41 792.164C1279.18 777.768 1279.18 777.768 1279.18 777.768" fill="#D4E4F8"/>
<path d="M1366.63 708.659C1366.63 708.659 1288.15 741.293 1279.18 777.767C1279.18 777.767 1279.55 794.084 1271.71 812.796V819.997C1271.71 819.997 1279.93 795.525 1284.41 792.164C1284.41 792.164 1266.85 760.49 1366.63 708.659" fill="#D4E4F8"/>
<path d="M1271.71 812.795C1271.71 812.795 1259.6 836.398 1266.5 865.126L1269.61 864.056C1269.61 864.056 1266.59 832.408 1272.92 816.493C1279.25 800.579 1271.71 812.795 1271.71 812.795Z" fill="#D4E4F8"/>
<path d="M1278.23 927.43C1308.56 927.43 1333.14 895.86 1333.14 856.926H1223.33C1223.33 895.86 1247.91 927.43 1278.23 927.43Z" fill="#D4E4F8"/>
<path d="M1333.89 931.017H1222.57C1222.57 926.21 1225.6 922.317 1229.35 922.317H1327.12C1330.86 922.317 1333.89 926.21 1333.89 931.017" fill="#D4E4F8"/>
<path d="M1334.38 859.086H1221.53V856.926H1334.38V859.086Z" fill="#9FC1F4"/>
<path d="M1237.55 353.259L1248 400.153C1248.15 400.841 1248.2 401.542 1248.17 402.223C1248.04 404.688 1246.73 406.894 1244.77 407.614L1181.35 430.919C1179.39 431.639 1177.35 430.64 1176.24 428.616C1175.94 428.071 1175.7 427.454 1175.55 426.773L1165.1 379.898C1164.39 376.693 1165.83 373.358 1168.32 372.437L1231.74 349.139C1234.23 348.224 1236.83 350.06 1237.55 353.259Z" fill="#CDE0FB"/>
<path d="M1248.17 402.223C1248.04 404.688 1246.73 406.894 1244.77 407.614L1181.35 430.919C1179.39 431.639 1177.35 430.64 1176.24 428.616L1208.54 390.824L1248.17 402.223Z" fill="#BED7FB"/>
<path d="M1237.55 353.259L1209.15 398.531L1165.63 382.299L1165.1 379.898C1164.39 376.693 1165.83 373.358 1168.32 372.437L1231.74 349.139C1234.23 348.224 1236.82 350.06 1237.55 353.259" fill="#DFEBFD"/>
<path d="M372.066 390.921H362.087V343.774H372.066V390.921Z" fill="#D6E8FC"/>
<path d="M370.818 339.108H363.788C363.102 339.108 362.541 338.388 362.541 337.506C362.541 336.623 363.102 335.903 363.788 335.903H370.818C371.504 335.903 372.065 336.623 372.065 337.506C372.065 338.388 371.504 339.108 370.818 339.108Z" fill="#D6E8FC"/>
<path d="M354.862 390.921H344.884V306.754H354.862V390.921Z" fill="#D6E8FC"/>
<path d="M353.388 303.264H346.358C345.672 303.264 345.11 302.544 345.11 301.661C345.11 300.779 345.672 300.059 346.358 300.059H353.388C354.074 300.059 354.634 300.779 354.634 301.661C354.634 302.544 354.074 303.264 353.388 303.264Z" fill="#D6E8FC"/>
<path d="M338.376 390.921H328.397V248.149H338.376V390.921Z" fill="#D6E8FC"/>
<path d="M336.901 244.256H329.871C329.185 244.256 328.624 243.536 328.624 242.654C328.624 241.771 329.185 241.051 329.871 241.051H336.901C337.587 241.051 338.148 241.771 338.148 242.654C338.148 243.536 337.587 244.256 336.901 244.256Z" fill="#D6E8FC"/>
<path d="M321.456 390.921H311.477V274.055H321.456V390.921Z" fill="#D6E8FC"/>
<path d="M319.981 270.928H312.951C312.265 270.928 311.704 270.208 311.704 269.325C311.704 268.443 312.265 267.723 312.951 267.723H319.981C320.667 267.723 321.228 268.443 321.228 269.325C321.228 270.208 320.667 270.928 319.981 270.928Z" fill="#D6E8FC"/>
<path d="M304.969 390.921H294.991V209.202H304.969V390.921Z" fill="#D6E8FC"/>
<path d="M303.495 205.718H296.465C295.779 205.718 295.218 204.998 295.218 204.122C295.218 203.24 295.779 202.52 296.465 202.52H303.495C304.181 202.52 304.743 203.24 304.743 204.122C304.743 204.998 304.181 205.718 303.495 205.718Z" fill="#D6E8FC"/>
<path d="M288.916 390.921H278.938V237.58H288.916V390.921Z" fill="#D6E8FC"/>
<path d="M287.442 234.323H280.413C279.727 234.323 279.165 233.597 279.165 232.721C279.165 231.838 279.727 231.118 280.413 231.118H287.442C288.128 231.118 288.69 231.838 288.69 232.721C288.69 233.597 288.128 234.323 287.442 234.323Z" fill="#D6E8FC"/>
<path d="M960.859 645.558C960.243 642.781 961.491 640.53 963.653 640.53C965.815 640.53 968.069 642.781 968.69 645.558C969.312 648.335 968.059 650.586 965.896 650.586C963.734 650.586 961.481 648.335 960.859 645.558Z" fill="white"/>
</svg>
