<svg width="372" height="484" viewBox="0 0 372 484" fill="none" xmlns="http://www.w3.org/2000/svg">
<path d="M353.027 389H0V390H353.027V389Z" fill="#EBEBEB"/>
<path d="M347.348 398H324.633V399H347.348V398Z" fill="#EBEBEB"/>
<path d="M352.08 402H333.151V403H352.08V402Z" fill="#EBEBEB"/>
<path d="M341.194 394H293.4V394.297H341.194V394Z" fill="#EBEBEB"/>
<path d="M185.698 403.397H173.742V403.695H185.698V403.397Z" fill="#EBEBEB"/>
<path d="M164.179 403.397H122.976V403.695H164.179V403.397Z" fill="#EBEBEB"/>
<path d="M100.899 398.38H71.1689V398.677H100.899V398.38Z" fill="#EBEBEB"/>
<path d="M254.367 336.283H47.1275C45.504 336.28 43.9479 335.563 42.8009 334.291C41.654 333.018 41.0098 331.293 41.0098 329.494V6.78844C41.0239 5.00035 41.6743 3.29064 42.8198 2.03068C43.9652 0.770717 45.5132 0.0622672 47.1275 0.0592041H254.367C255.992 0.0592041 257.551 0.774438 258.7 2.04756C259.849 3.32069 260.495 5.04741 260.495 6.84788V329.494C260.495 331.295 259.849 333.022 258.7 334.295C257.551 335.568 255.992 336.283 254.367 336.283V336.283ZM47.1275 0.296987C45.5751 0.300137 44.0873 0.985443 42.9907 2.20249C41.894 3.41953 41.2781 5.06886 41.2781 6.78844V329.494C41.2781 331.214 41.894 332.863 42.9907 334.08C44.0873 335.297 45.5751 335.983 47.1275 335.986H254.367C255.92 335.983 257.409 335.298 258.507 334.081C259.606 332.864 260.224 331.215 260.227 329.494V6.78844C260.224 5.06776 259.606 3.41846 258.507 2.20176C257.409 0.985057 255.92 0.30013 254.367 0.296987H47.1275Z" fill="#EBEBEB"/>
<path d="M123.427 142.289C129.379 142.289 135.087 139.67 139.296 135.007C143.505 130.345 145.869 124.022 145.869 117.429C145.869 110.835 143.505 104.512 139.296 99.85C135.087 95.1878 129.379 92.5686 123.427 92.5686H120.668V142.289H123.427Z" fill="#E0E0E0"/>
<path d="M120.647 142.277C133.042 142.277 143.09 131.147 143.09 117.417C143.09 103.687 133.042 92.5566 120.647 92.5566C108.253 92.5566 98.2051 103.687 98.2051 117.417C98.2051 131.147 108.253 142.277 120.647 142.277Z" fill="#F5F5F5"/>
<path d="M143.798 310.187H160.122V240.124H143.798V310.187Z" fill="#E6E6E6"/>
<path d="M99.5469 310.187H153.715L161.894 228.188H107.725L99.5469 310.187Z" fill="#F0F0F0"/>
<path d="M93.6758 310.187H149.637L157.815 228.188H101.865L93.6758 310.187Z" fill="#F5F5F5"/>
<path d="M145.59 303.731L152.481 234.643H105.9L99.0098 303.731H145.59Z" fill="white"/>
<path d="M135.973 286.979L136.306 284.209C138.034 266.875 128.267 251.431 115.581 251.431L115.291 254.248C113.563 271.571 123.33 287.015 136.027 287.015L135.973 286.979Z" fill="#F5F5F5"/>
<path d="M63.4196 389.309H111.545L111.545 310.187H63.4196L63.4196 389.309Z" fill="#E6E6E6"/>
<path d="M68.2497 389.309H63.4092V374.055H73.3263L68.2497 389.309Z" fill="#F0F0F0"/>
<path d="M198.299 389.309H246.425V310.187H198.299V389.309Z" fill="#E6E6E6"/>
<path d="M63.4095 379.952H202.517V310.199H63.4095V379.952Z" fill="#F0F0F0"/>
<path d="M197.677 389.309H202.517V374.055H192.6L197.677 389.309Z" fill="#F0F0F0"/>
<path d="M67.1661 342.703H198.761V314.55H67.1661V342.703Z" fill="#E6E6E6"/>
<path d="M124.189 332.954H141.737C145.51 332.956 149.244 332.105 152.71 330.453C156.175 328.801 159.3 326.384 161.894 323.348H104.033C106.628 326.382 109.753 328.799 113.218 330.45C116.684 332.102 120.417 332.954 124.189 332.954V332.954Z" fill="#F0F0F0"/>
<path d="M67.1661 375.398H198.761V347.245H67.1661V375.398Z" fill="#E6E6E6"/>
<path d="M124.189 365.602H141.737C145.51 365.603 149.244 364.752 152.71 363.101C156.175 361.449 159.3 359.031 161.894 355.995H104.033C106.628 359.029 109.753 361.446 113.218 363.098C116.684 364.749 120.417 365.601 124.189 365.602V365.602Z" fill="#F0F0F0"/>
<path d="M193.705 306.965H194.95C194.95 304.123 194.95 296.93 195.079 280.44C195.304 250.539 195.734 248.72 195.734 248.72L192.771 262.523C190.893 277.801 193.319 293.161 193.705 306.965Z" fill="#E6E6E6"/>
<path d="M191.248 260.431C186.955 254.807 177.885 253.167 168.569 251.764C164.91 251.217 178.175 260.478 184.669 267.053C189.713 272.165 192.933 273.58 194.328 278.669C195.036 272.32 194.918 265.317 191.248 260.431Z" fill="#E6E6E6"/>
<path d="M196.904 270.513C201.197 264.889 210.266 263.261 219.582 261.858C223.242 261.311 209.922 270.572 203.483 277.147C198.438 282.259 195.218 283.674 193.823 288.763C193.115 282.414 193.19 275.364 196.904 270.513Z" fill="#E6E6E6"/>
<path d="M195.079 247.353C198.298 240.624 206.305 234.275 215.331 231.897C218.873 230.958 207.121 244.309 202.656 252.929C199.189 259.611 194.596 267.481 193.877 273.14C192.803 261.988 191.88 254.118 195.079 247.353Z" fill="#E6E6E6"/>
<path d="M194.692 310.187C190.893 310.187 187.748 308.082 187.523 305.372L186.89 300.759H202.506L201.862 305.372C201.647 308.082 198.556 310.187 194.692 310.187Z" fill="#F0F0F0"/>
<path d="M203.515 302.53H185.881L185.376 297.382H204.019L203.515 302.53Z" fill="#F0F0F0"/>
<path d="M199.684 201.746L371.634 201.746V28.0106L199.684 28.0106L199.684 201.746Z" fill="#E6E6E6"/>
<path d="M65 202L370 202V28L65 28V202Z" fill="#F5F5F5"/>
<path d="M362.995 193.971V35.798L202.754 35.798V193.971H362.995Z" fill="#FAFAFA"/>
<path d="M343.342 193.959L280.277 35.798H258.854L321.92 193.959H343.342Z" fill="white"/>
<path d="M315.845 193.959L252.779 35.798H238.032L301.098 193.959H315.845Z" fill="white"/>
<path d="M262.256 193.959V35.786H253.971V193.959H262.256Z" fill="#E6E6E6"/>
<path d="M317.337 193.959V35.7861H309.051V193.959H317.337Z" fill="#E6E6E6"/>
<path d="M260.765 198.905V30.0079H250.289V198.905H260.765Z" fill="#F5F5F5"/>
<path d="M315.845 198.905V30.0079H305.37V198.905H315.845Z" fill="#F5F5F5"/>
<path d="M203.505 193.959V35.786H202.765V193.959H203.505Z" fill="#E6E6E6"/>
<path d="M60.4955 18H369.504C369.9 18.0031 370.277 18.1101 370.557 18.2981C370.836 18.4861 370.995 18.7402 371 19.006C370.995 19.2707 370.836 19.5235 370.556 19.7096C370.276 19.8957 369.898 20 369.504 20H60.4955C60.102 20 59.7242 19.8957 59.4443 19.7096C59.1643 19.5235 59.0047 19.2707 59 19.006V19.006C59.0046 18.7402 59.1637 18.4861 59.4431 18.2981C59.7226 18.1101 60.1003 18.0031 60.4955 18Z" fill="#E6E6E6"/>
<path d="M370.213 24.5641C370.533 24.561 370.838 24.418 371.063 24.1664C371.289 23.9148 371.415 23.5749 371.415 23.2206V20.3435C371.416 20.1676 371.386 19.9932 371.326 19.8302C371.267 19.6673 371.178 19.5191 371.067 19.3942C370.955 19.2693 370.822 19.1701 370.675 19.1025C370.529 19.0348 370.372 19 370.213 19V19C369.893 19 369.586 19.1399 369.359 19.3893C369.132 19.6387 369.003 19.9773 369 20.3316V23.2087C369 23.5662 369.127 23.9091 369.355 24.163C369.582 24.4168 369.89 24.561 370.213 24.5641V24.5641Z" fill="#E6E6E6"/>
<path d="M64.2021 25.5641C64.5229 25.561 64.8297 25.4185 65.0566 25.1672C65.2834 24.9159 65.4121 24.576 65.4149 24.2206V21.3435C65.4149 20.9872 65.2871 20.6454 65.0597 20.3935C64.8322 20.1415 64.5237 20 64.2021 20V20C63.8833 20 63.5776 20.1403 63.3521 20.39C63.1267 20.6397 63 20.9784 63 21.3316V24.2087C62.9986 24.3852 63.0286 24.5602 63.0883 24.7238C63.1479 24.8874 63.2361 25.0364 63.3477 25.1622C63.4593 25.2881 63.5922 25.3884 63.7388 25.4573C63.8854 25.5263 64.0428 25.5626 64.2021 25.5641Z" fill="#E6E6E6"/>
<path opacity="0.6" d="M69 155L367 155V19L69 19V155Z" fill="#79A3FF"/>
<path d="M365.225 243.75H335.217C332.028 243.75 329.442 246.614 329.442 250.147V265.531C329.442 269.064 332.028 271.928 335.217 271.928H365.225C368.415 271.928 371 269.064 371 265.531V250.147C371 246.614 368.415 243.75 365.225 243.75Z" fill="#FAFAFA"/>
<path d="M368.199 224H360.842C360.633 224 360.464 225.273 360.464 226.842V229.158C360.464 230.727 360.633 232 360.842 232H368.199C368.408 232 368.577 230.727 368.577 229.158V226.842C368.577 225.273 368.408 224 368.199 224Z" fill="#F5F5F5"/>
<path d="M295.699 291H355.934V272H295.699V291Z" fill="#F5F5F5"/>
<path d="M295.624 389.309H301.033V291.057H295.624V389.309Z" fill="#F5F5F5"/>
<path d="M295.901 375.154H145.879C143.466 375.119 141.156 374.164 139.411 372.479C137.666 370.794 136.616 368.505 136.471 366.07L123.017 102.667C122.943 101.496 123.108 100.321 123.504 99.2171C123.899 98.1132 124.516 97.1038 125.315 96.2521C126.115 95.4004 127.079 94.7249 128.149 94.2678C129.219 93.8107 130.37 93.5819 131.532 93.5958H281.554C283.965 93.6274 286.276 94.5803 288.021 96.263C289.766 97.9456 290.817 100.234 290.962 102.667L304.392 366.07C304.466 367.241 304.301 368.414 303.907 369.517C303.514 370.619 302.899 371.629 302.102 372.481C301.306 373.333 300.344 374.01 299.277 374.47C298.21 374.93 297.061 375.163 295.901 375.154V375.154Z" fill="#407BFF"/>
<path opacity="0.8" d="M295.901 375.154H145.879C143.466 375.119 141.156 374.164 139.411 372.479C137.666 370.794 136.616 368.505 136.471 366.07L123.017 102.667C122.943 101.496 123.108 100.321 123.504 99.2171C123.899 98.1132 124.516 97.1038 125.315 96.2521C126.115 95.4004 127.079 94.7249 128.149 94.2678C129.219 93.8107 130.37 93.5819 131.532 93.5958H281.554C283.965 93.6274 286.276 94.5803 288.021 96.263C289.766 97.9456 290.817 100.234 290.962 102.667L304.392 366.07C304.466 367.241 304.301 368.414 303.907 369.517C303.514 370.619 302.899 371.629 302.102 372.481C301.306 373.333 300.344 374.01 299.277 374.47C298.21 374.93 297.061 375.163 295.901 375.154V375.154Z" fill="white"/>
<path d="M266.748 85H250.155V86.1889H266.748V85Z" fill="#407BFF"/>
<path d="M244.404 85H238.324V86.1889H244.404V85Z" fill="#407BFF"/>
<path d="M302.357 358.438H158.885C156.575 358.415 154.359 357.508 152.683 355.9C151.007 354.292 149.996 352.102 149.854 349.771L137.012 97.8403C136.94 96.719 137.099 95.5949 137.478 94.5385C137.856 93.4821 138.446 92.5162 139.212 91.7013C139.977 90.8864 140.9 90.2402 141.924 89.8031C142.948 89.366 144.05 89.1475 145.161 89.1613H288.633C290.944 89.1871 293.159 90.0967 294.832 91.707C296.506 93.3173 297.514 95.5088 297.653 97.8403L310.495 349.771C310.567 350.89 310.408 352.013 310.03 353.068C309.652 354.123 309.063 355.087 308.299 355.901C307.535 356.715 306.613 357.36 305.59 357.797C304.568 358.233 303.467 358.451 302.357 358.438Z" fill="url(#paint0_diamond_336_2)"/>
<path d="M302.358 352.648H158.886C158.044 352.618 157.243 352.278 156.633 351.69C156.024 351.103 155.65 350.31 155.581 349.461L142.727 97.5431C142.698 97.208 142.74 96.8705 142.849 96.5528C142.959 96.2351 143.134 95.9446 143.362 95.7003C143.592 95.4566 143.87 95.2649 144.178 95.1378C144.486 95.0107 144.817 94.9512 145.15 94.9632H288.622C289.461 94.9952 290.26 95.3372 290.867 95.9244C291.473 96.5115 291.846 97.3031 291.915 98.1494L304.827 350.068C304.855 350.402 304.814 350.738 304.704 351.054C304.595 351.371 304.421 351.66 304.193 351.904C303.966 352.147 303.69 352.34 303.384 352.468C303.077 352.596 302.748 352.657 302.416 352.648H302.358ZM145.15 95.2604C144.857 95.2508 144.566 95.303 144.295 95.4135C144.024 95.5241 143.778 95.6906 143.574 95.9024C143.378 96.122 143.227 96.3795 143.132 96.6595C143.037 96.9395 143 97.2361 143.021 97.5312L155.863 349.45C155.929 350.221 156.271 350.942 156.825 351.476C157.38 352.01 158.108 352.321 158.874 352.35H302.346C302.637 352.362 302.927 352.311 303.196 352.2C303.466 352.089 303.709 351.922 303.91 351.708C304.111 351.492 304.264 351.235 304.36 350.954C304.455 350.673 304.49 350.375 304.463 350.08L291.632 98.1613C291.57 97.3908 291.23 96.6702 290.677 96.1357C290.125 95.6011 289.398 95.2898 288.634 95.2604H145.15Z" fill="white"/>
<path opacity="0.3" d="M252.173 186.766C268.492 169.836 267.429 142.033 249.8 124.665C232.171 107.296 204.651 106.941 188.333 123.87C172.014 140.799 173.077 168.603 190.706 185.971C208.335 203.339 235.855 203.695 252.173 186.766Z" fill="white"/>
<path d="M255.435 155.336C255.764 161.179 254.602 167.009 252.06 172.266C249.308 177.905 245.037 182.644 239.737 185.936C234.438 189.228 228.326 190.939 222.107 190.873C215.662 190.814 209.341 189.069 203.761 185.809C198.18 182.548 193.529 177.883 190.261 172.266C187.215 167.13 185.463 161.317 185.157 155.336C184.867 150.749 185.517 146.152 187.065 141.831C188.613 137.51 191.027 133.558 194.156 130.224C197.284 126.889 201.06 124.243 205.246 122.452C209.432 120.66 213.939 119.761 218.485 119.811C227.946 119.911 237.018 123.631 243.874 130.223C250.731 136.815 254.861 145.788 255.435 155.336V155.336Z" fill="white"/>
<path d="M252.024 172.266C249.273 177.905 245.001 182.644 239.702 185.936C234.403 189.227 228.291 190.939 222.072 190.872C215.626 190.814 209.306 189.069 203.725 185.809C198.145 182.548 193.494 177.883 190.226 172.266C199.162 166.026 209.776 162.707 220.637 162.755C231.788 162.797 242.689 166.1 252.024 172.266Z" fill="#2AD2C6"/>
<path d="M231.147 154.51C237.027 148.411 236.642 138.392 230.288 132.132C223.934 125.872 214.017 125.742 208.138 131.841C202.259 137.94 202.644 147.959 208.998 154.219C215.351 160.479 225.268 160.609 231.147 154.51Z" fill="#04B1E3"/>
<path d="M281.789 260.424H169.446C168.467 260.414 167.529 260.029 166.82 259.347C166.111 258.665 165.683 257.737 165.624 256.75L164.777 240.105C164.748 239.632 164.816 239.157 164.976 238.712C165.137 238.266 165.387 237.858 165.71 237.515C166.033 237.171 166.423 236.898 166.856 236.714C167.288 236.53 167.754 236.438 168.223 236.443H280.566C281.543 236.453 282.479 236.836 283.188 237.516C283.897 238.195 284.326 239.12 284.388 240.105L285.235 256.75C285.266 257.224 285.199 257.7 285.039 258.147C284.88 258.595 284.63 259.003 284.306 259.349C283.983 259.694 283.592 259.967 283.159 260.152C282.726 260.337 282.259 260.43 281.789 260.424V260.424Z" fill="white"/>
<path opacity="0.3" d="M247.391 227.253H200.469C199.486 227.246 198.543 226.861 197.831 226.176C197.119 225.492 196.692 224.559 196.635 223.567L196.459 220.001C196.428 219.526 196.494 219.05 196.654 218.603C196.814 218.156 197.063 217.747 197.387 217.402C197.71 217.057 198.101 216.784 198.534 216.598C198.968 216.413 199.434 216.321 199.904 216.327H246.815C247.793 216.337 248.732 216.722 249.441 217.403C250.15 218.085 250.577 219.013 250.637 220.001L250.825 223.567C250.854 224.041 250.787 224.516 250.627 224.962C250.467 225.408 250.219 225.816 249.897 226.162C249.575 226.507 249.187 226.782 248.756 226.97C248.325 227.158 247.86 227.254 247.391 227.253V227.253Z" fill="black"/>
<path opacity="0.3" d="M264.843 340.449H194.554C192.889 340.429 191.294 339.773 190.088 338.613C188.882 337.453 188.154 335.875 188.05 334.196L187.639 325.992C187.597 325.186 187.719 324.38 187.995 323.622C188.272 322.865 188.699 322.173 189.249 321.587C189.799 321.002 190.462 320.537 191.196 320.219C191.93 319.901 192.72 319.737 193.519 319.739H263.785C265.449 319.759 267.044 320.415 268.25 321.575C269.457 322.735 270.184 324.313 270.288 325.992L270.7 334.196C270.741 335 270.62 335.804 270.345 336.56C270.07 337.316 269.645 338.007 269.098 338.592C268.55 339.177 267.89 339.643 267.159 339.962C266.428 340.281 265.64 340.447 264.843 340.449V340.449Z" fill="black"/>
<path d="M283.847 300.68H171.492C170.515 300.667 169.578 300.282 168.869 299.601C168.161 298.92 167.732 297.993 167.67 297.007L166.823 280.362C166.794 279.888 166.862 279.413 167.023 278.966C167.183 278.52 167.433 278.112 167.756 277.767C168.079 277.423 168.469 277.149 168.901 276.963C169.334 276.778 169.799 276.684 170.269 276.688H282.612C283.591 276.698 284.529 277.083 285.238 277.765C285.948 278.446 286.375 279.374 286.434 280.362L287.293 297.007C287.32 297.48 287.251 297.955 287.09 298.4C286.929 298.846 286.68 299.253 286.357 299.598C286.034 299.942 285.644 300.216 285.213 300.402C284.781 300.588 284.317 300.683 283.847 300.68V300.68Z" fill="white"/>
<path d="M207.891 484C288.336 484 353.55 477.956 353.55 470.5C353.55 463.044 288.336 457 207.891 457C127.446 457 62.2319 463.044 62.2319 470.5C62.2319 477.956 127.446 484 207.891 484Z" fill="#F5F5F5"/>
<path d="M356.032 187.632C356.3 188.083 356.44 188.321 356.611 188.642L357.094 189.522C357.405 190.116 357.685 190.711 357.953 191.293C358.49 192.482 359.026 193.671 359.455 194.86C360.355 197.221 361.129 199.639 361.774 202.101C363.073 206.963 363.929 211.958 364.328 217.01L364.403 217.949C364.412 218.139 364.412 218.329 364.403 218.52V219.15C364.421 219.976 364.378 220.804 364.274 221.623C364.069 223.141 363.709 224.629 363.201 226.057C362.258 228.609 361.009 231.008 359.488 233.191C356.649 237.217 353.281 240.748 349.495 243.665L346.533 239.825C349.229 236.452 351.616 232.793 353.66 228.899C354.579 227.132 355.3 225.248 355.806 223.287C356.011 222.457 356.13 221.603 356.16 220.743C356.194 220.375 356.194 220.005 356.16 219.637V219.387C356.171 219.277 356.171 219.165 356.16 219.055L356.032 218.222C355.342 213.791 354.366 209.421 353.112 205.144C352.49 203.016 351.728 200.959 350.966 198.95C350.59 197.939 350.161 196.953 349.732 196.002L349.066 194.599L348.733 193.945L348.454 193.422L356.032 187.632Z" fill="#803E3C"/>
<path d="M346.05 243.689L349.936 252.784L353.016 245.092C353.016 245.092 350.279 238.434 346.576 239.052L346.05 243.689Z" fill="#7F3E3B"/>
<path d="M352.715 253.236L355.806 247.624L353.016 245.092L349.936 252.784L352.715 253.236Z" fill="#7F3E3B"/>
<path d="M335.242 462.984C336.046 462.961 336.845 462.842 337.625 462.627C337.665 462.614 337.7 462.589 337.728 462.556C337.757 462.522 337.777 462.481 337.786 462.437C337.793 462.391 337.787 462.344 337.77 462.302C337.753 462.26 337.725 462.224 337.689 462.199C337.378 461.973 334.652 460.023 333.6 460.546C333.484 460.607 333.384 460.7 333.31 460.817C333.237 460.934 333.192 461.07 333.182 461.212C333.149 461.427 333.164 461.648 333.226 461.855C333.288 462.062 333.394 462.25 333.536 462.401C334.022 462.817 334.629 463.024 335.242 462.984V462.984ZM337.013 462.282C335.457 462.639 334.276 462.579 333.793 462.116C333.695 462.007 333.623 461.873 333.583 461.726C333.544 461.578 333.539 461.422 333.568 461.272C333.568 461.069 333.675 461.01 333.751 460.974C334.33 460.689 335.908 461.533 337.013 462.282V462.282Z" fill="#407BFF"/>
<path d="M337.572 462.627H337.679C337.711 462.603 337.738 462.572 337.757 462.534C337.775 462.497 337.785 462.455 337.786 462.413C337.786 462.294 337.786 459.428 336.799 458.465C336.678 458.345 336.534 458.255 336.379 458.201C336.223 458.148 336.059 458.133 335.897 458.156C335.728 458.158 335.564 458.224 335.433 458.343C335.303 458.462 335.212 458.627 335.178 458.81C334.974 459.94 336.606 462.08 337.464 462.627H337.572ZM336.037 458.596C336.124 458.594 336.21 458.61 336.291 458.645C336.372 458.679 336.446 458.732 336.509 458.798C337.075 459.723 337.368 460.82 337.346 461.937C336.488 461.176 335.468 459.559 335.597 458.882C335.597 458.775 335.672 458.632 335.94 458.596H336.037Z" fill="#407BFF"/>
<path d="M325.111 458.133C325.136 458.098 325.152 458.056 325.158 458.012C325.164 457.968 325.159 457.923 325.143 457.881C325.128 457.84 325.103 457.804 325.071 457.777C325.039 457.75 325.001 457.733 324.961 457.728C324.52 457.728 320.668 457.526 319.787 458.572V458.644C319.715 458.747 319.668 458.869 319.651 458.998C319.634 459.127 319.648 459.259 319.691 459.381C319.748 459.585 319.849 459.771 319.986 459.922C320.122 460.073 320.29 460.185 320.474 460.249C321.719 460.677 323.919 459.119 325.122 458.156L325.111 458.133ZM320.109 458.882C320.592 458.311 322.717 458.156 324.306 458.18C322.642 459.44 321.258 460.035 320.56 459.797C320.439 459.756 320.328 459.683 320.238 459.583C320.148 459.484 320.082 459.361 320.045 459.226C320.023 459.18 320.012 459.13 320.012 459.078C320.012 459.026 320.023 458.975 320.045 458.929L320.109 458.882Z" fill="#407BFF"/>
<path d="M325.111 458.133C325.127 458.096 325.136 458.055 325.136 458.014C325.136 457.973 325.127 457.932 325.111 457.895C325.057 457.8 323.855 455.517 322.438 455.041C322.235 454.975 322.022 454.956 321.811 454.985C321.601 455.013 321.398 455.089 321.215 455.208C320.7 455.541 320.668 455.933 320.732 456.183C321.011 457.289 323.748 458.263 324.928 458.252C324.966 458.251 325.002 458.24 325.034 458.219C325.066 458.198 325.092 458.168 325.111 458.133ZM321.258 455.755C321.318 455.689 321.387 455.633 321.462 455.588C321.594 455.495 321.744 455.435 321.899 455.412C322.055 455.389 322.214 455.405 322.363 455.458C323.297 455.731 324.166 457.063 324.564 457.717C323.286 457.562 321.344 456.694 321.183 456.028C321.169 455.978 321.169 455.924 321.182 455.873C321.196 455.823 321.222 455.777 321.258 455.743V455.755Z" fill="#407BFF"/>
<path d="M336.927 152.809C335.854 158.753 333.535 171.605 337.26 175.552C337.26 175.552 335.8 181.497 325.894 181.497C314.989 181.497 320.688 175.552 320.688 175.552C326.634 173.983 326.484 169.085 325.443 164.496L336.927 152.809Z" fill="#7F3E3B"/>
<path d="M318.768 138.875C318.828 138.885 318.89 138.885 318.95 138.875C319.001 138.847 319.047 138.808 319.084 138.761C319.121 138.713 319.15 138.658 319.168 138.598C319.186 138.539 319.193 138.475 319.189 138.413C319.185 138.35 319.169 138.289 319.143 138.233C318.855 137.554 318.423 136.963 317.885 136.508C317.348 136.053 316.719 135.747 316.052 135.617C315.941 135.607 315.829 135.644 315.742 135.721C315.654 135.799 315.596 135.91 315.58 136.033C315.568 136.157 315.601 136.282 315.671 136.38C315.741 136.478 315.844 136.541 315.956 136.556V136.556C316.482 136.668 316.977 136.917 317.398 137.283C317.82 137.649 318.157 138.121 318.381 138.661C318.423 138.731 318.481 138.788 318.548 138.825C318.616 138.863 318.692 138.88 318.768 138.875Z" fill="#263238"/>
<path d="M315.515 144.094C314.67 145.829 313.616 147.429 312.381 148.849C312.716 149.188 313.112 149.442 313.544 149.594C313.976 149.746 314.433 149.792 314.882 149.729L315.515 144.094Z" fill="#630F0F"/>
<path d="M316.321 142.75C316.235 143.547 315.773 144.141 315.312 144.082C314.85 144.022 314.528 143.321 314.614 142.524C314.7 141.728 315.161 141.133 315.687 141.193C316.213 141.252 316.396 141.954 316.321 142.75Z" fill="#263238"/>
<path d="M315.827 141.264L314.174 140.527C314.174 140.527 314.872 142.096 315.827 141.264Z" fill="#263238"/>
<path d="M334.588 455.862L325.83 458.133L320.506 435.829L329.264 433.558L334.588 455.862Z" fill="#7F3E3B"/>
<path d="M348.025 462.389H339.042L339.739 439.324H348.733L348.025 462.389Z" fill="#7F3E3B"/>
<path d="M338.323 461.236H348.423C348.598 461.234 348.767 461.303 348.9 461.43C349.032 461.557 349.118 461.733 349.142 461.925L350.29 470.771C350.313 470.994 350.293 471.221 350.231 471.435C350.169 471.65 350.066 471.847 349.93 472.014C349.794 472.182 349.628 472.315 349.442 472.406C349.256 472.497 349.055 472.544 348.852 472.542C345.332 472.483 343.636 472.245 339.193 472.245C336.456 472.245 332.463 472.566 328.696 472.566C324.929 472.566 324.714 468.429 326.292 468.06C333.332 466.372 334.449 464.065 336.821 461.854C337.24 461.457 337.772 461.238 338.323 461.236Z" fill="#263238"/>
<path d="M325.057 456.647L334.234 451.974C334.39 451.892 334.567 451.875 334.733 451.928C334.899 451.98 335.042 452.098 335.135 452.259L339.525 459.773C339.628 459.967 339.692 460.182 339.715 460.405C339.738 460.627 339.719 460.853 339.658 461.067C339.597 461.281 339.497 461.478 339.363 461.647C339.229 461.815 339.065 461.95 338.881 462.044C335.661 463.614 334.03 464.196 329.994 466.253C327.515 467.513 322.481 470.414 319.068 472.197C315.655 473.981 313.895 470.283 315.183 469.213C320.947 464.458 322.599 461.045 323.92 457.942C324.143 457.371 324.548 456.91 325.057 456.647V456.647Z" fill="#263238"/>
<path opacity="0.2" d="M320.506 435.829L323.361 447.777L332.012 445.067L329.275 433.57L320.506 435.829Z" fill="black"/>
<path opacity="0.2" d="M348.734 439.336H339.74L339.386 451.225H348.38L348.734 439.336Z" fill="black"/>
<path d="M352.812 177.811C356.547 178.727 360.54 193.6 360.54 193.6L349.979 206.048C349.979 206.048 341.21 192.066 343.002 186.93C344.816 181.568 348.358 176.741 352.812 177.811Z" fill="#263238"/>
<path opacity="0.4" d="M346.845 187.287C344.956 185.373 343.678 185.943 342.809 187.465C341.95 191.888 347.038 201.15 349.088 204.657C350.032 200.472 351.116 191.65 346.845 187.287Z" fill="black"/>
<path d="M305.491 178.109C305.491 178.109 301.198 179.773 309.784 238.208H346.276C345.664 221.754 345.643 211.6 352.715 177.811C347.602 176.643 342.419 175.888 337.207 175.552C331.69 175.112 326.152 175.112 320.635 175.552C313.562 176.278 305.491 178.109 305.491 178.109Z" fill="#263238"/>
<path opacity="0.4" d="M305.158 200.532C305.394 203.373 305.706 206.571 306.113 210.185C309.108 207.201 311.555 198.712 310.653 193.767C308.514 195.69 306.66 197.973 305.158 200.532Z" fill="black"/>
<path d="M309.065 191.65C307.096 197.14 304.879 202.517 302.422 207.76C299.993 213.192 297.119 218.366 293.835 223.216L293.149 224.155L292.805 224.619C292.687 224.773 292.59 224.916 292.408 225.13C291.762 225.911 291.042 226.612 290.261 227.222C288.881 228.281 287.37 229.114 285.775 229.695C282.994 230.679 280.106 231.247 277.189 231.384C271.726 231.624 266.257 231.085 260.918 229.779L261.508 224.785C263.977 224.785 266.563 224.785 269.021 224.559C271.49 224.425 273.949 224.123 276.384 223.656C278.646 223.265 280.858 222.578 282.974 221.611C283.828 221.206 284.627 220.67 285.346 220.018C285.62 219.763 285.868 219.476 286.086 219.162C286.086 219.162 286.215 218.971 286.301 218.841L286.548 218.448L287.052 217.664C289.745 213.055 292.145 208.245 294.233 203.266C296.379 198.213 298.526 192.97 300.49 187.81L309.065 191.65Z" fill="#803E3C"/>
<path d="M305.491 178.108C301.016 179.297 295.521 192.898 295.521 192.898L304.794 207.998C304.794 207.998 317.147 190.77 315.677 185.515C314.174 180.034 310.954 176.634 305.491 178.108Z" fill="#263238"/>
<path d="M264.084 225.546L256.346 221.587L255.573 230.111C255.573 230.111 262.013 232.216 265.233 230.111L264.084 225.546Z" fill="#7F3E3B"/>
<path d="M251.72 220.731L250.979 227.211L255.573 230.111L256.346 221.587L251.72 220.731Z" fill="#7F3E3B"/>
<path d="M340.813 143.333C339.171 153.046 338.666 157.207 333.643 161.618C326.13 168.252 315.666 163.901 314.657 153.843C313.734 144.783 316.567 130.421 325.658 127.687C327.661 127.075 329.771 127.041 331.789 127.589C333.806 128.138 335.663 129.249 337.183 130.818C338.703 132.387 339.834 134.361 340.469 136.552C341.105 138.742 341.223 141.077 340.813 143.333V143.333Z" fill="#7F3E3B"/>
<path d="M321.548 145.378C321.043 150.336 320.85 163.212 330.681 163.616C342.713 164.103 346.319 152.713 345.246 148.16C351.514 142.513 352.415 132.799 345.374 125.368C338.334 117.938 322.836 122.087 318.542 129.328C313.101 138.304 321.548 145.378 321.548 145.378Z" fill="#263238"/>
<path d="M333.6 128.257C333.021 123.026 333.471 119.424 337.893 119.424C342.315 119.424 348.347 121.195 350.558 126.201C352.769 131.206 352.951 139.041 346.78 138.244C340.609 137.448 334.298 134.511 333.6 128.257Z" fill="#407BFF"/>
<path d="M340.448 126.997C339.375 120.767 344.408 103.219 356.633 102.03C362.3 101.495 364.919 108.248 361.999 109.366C367.366 109.294 370.8 117.153 365.799 118.33C369.748 121.136 368.772 126.89 363.137 129.72C358.94 131.86 341.897 135.629 340.448 126.997Z" fill="#263238"/>
<path d="M353.51 133.691C349.571 133.691 345.46 133.049 342.906 131.159C342.192 130.682 341.59 130.023 341.152 129.237C340.713 128.452 340.45 127.562 340.384 126.641C340.38 126.562 340.404 126.486 340.45 126.426C340.496 126.367 340.56 126.329 340.63 126.32C340.666 126.315 340.702 126.318 340.736 126.329C340.771 126.341 340.803 126.36 340.83 126.386C340.857 126.411 340.879 126.443 340.895 126.479C340.91 126.514 340.919 126.553 340.92 126.593C340.985 127.424 341.226 128.226 341.623 128.935C342.02 129.644 342.563 130.238 343.206 130.671C348.068 134.238 359.305 133.049 362.804 131.86C365.831 130.766 367.881 128.638 368.289 126.189C368.416 125.29 368.316 124.37 367.999 123.53C367.683 122.691 367.163 121.965 366.496 121.433C366.471 121.407 366.45 121.374 366.436 121.339C366.422 121.303 366.415 121.264 366.415 121.225C366.415 121.186 366.422 121.148 366.436 121.112C366.45 121.076 366.471 121.044 366.496 121.017C366.547 120.963 366.614 120.932 366.684 120.932C366.754 120.932 366.822 120.963 366.872 121.017C367.621 121.623 368.204 122.447 368.554 123.398C368.905 124.349 369.01 125.389 368.858 126.403C368.418 129.078 366.239 131.361 363.019 132.526C359.912 133.393 356.713 133.785 353.51 133.691V133.691Z" fill="#263238"/>
<path d="M318.811 144.094C317.811 145.647 317.399 147.571 317.663 149.456C318.017 151.953 320.206 152.119 321.795 150.526C323.383 148.933 324.768 146.056 323.598 143.987C323.338 143.54 322.979 143.174 322.555 142.924C322.132 142.675 321.657 142.549 321.177 142.56C320.698 142.571 320.228 142.717 319.814 142.986C319.4 143.254 319.054 143.636 318.811 144.094Z" fill="#7F3E3B"/>
<path d="M319.423 238.208C319.423 238.208 324.639 306.558 330.059 345.079C334.427 376.193 337.883 448.919 337.883 448.919H350.14C350.14 448.919 354.498 378.369 352.287 347.6C346.673 269.726 359.199 263.377 346.308 238.22L319.423 238.208Z" fill="#407BFF"/>
<path opacity="0.4" d="M334.856 264.043C329.999 269.69 326.078 276.243 323.275 283.398C324.703 298.759 326.399 315.808 328.202 330.741C335.6 309.523 337.894 286.539 334.856 264.043V264.043Z" fill="black"/>
<path d="M310.847 237.78C310.847 237.78 299.524 312.432 297.742 346.078C302.186 377.192 320.367 442.962 320.367 442.962L331.518 438.48C331.518 438.48 325.347 366.765 318.639 347.136C333.74 290.817 344.838 276.574 341.607 238.208C333.869 238.208 310.847 237.78 310.847 237.78Z" fill="#407BFF"/>
<path d="M318.875 446.244L333.944 441.702L333.085 435.056L316.954 439.883L318.875 446.244Z" fill="#263238"/>
<path d="M336.198 449.192H351.814L352.63 443.117L336.112 442.499L336.198 449.192Z" fill="#263238"/>
<path d="M346.844 235.83L348.486 239.456C348.615 239.742 348.315 240.027 347.896 240.027H309.602C309.28 240.027 309.001 239.849 308.979 239.611L308.646 236.044C308.646 235.794 308.915 235.58 309.269 235.58H346.243C346.354 235.564 346.467 235.578 346.572 235.621C346.677 235.665 346.771 235.737 346.844 235.83V235.83Z" fill="#407BFF"/>
<path opacity="0.5" d="M346.844 235.83L348.486 239.456C348.615 239.742 348.315 240.027 347.896 240.027H309.602C309.28 240.027 309.001 239.849 308.979 239.611L308.646 236.044C308.646 235.794 308.915 235.58 309.269 235.58H346.243C346.354 235.564 346.467 235.578 346.572 235.621C346.677 235.665 346.771 235.737 346.844 235.83V235.83Z" fill="black"/>
<path d="M341.875 240.396H342.863C343.067 240.396 343.217 240.277 343.206 240.146L342.734 235.39C342.734 235.248 342.551 235.141 342.358 235.141H341.36C341.167 235.141 341.017 235.248 341.027 235.39L341.489 240.146C341.51 240.3 341.682 240.396 341.875 240.396Z" fill="#407BFF"/>
<path d="M328.588 205.775C328.47 205.773 328.355 205.729 328.261 205.65C328.166 205.571 328.097 205.46 328.063 205.335C324.564 190.996 317.33 179.179 313.82 177.395C313.547 177.21 313.22 177.15 312.908 177.229C312.843 177.267 312.772 177.289 312.699 177.296C312.626 177.302 312.552 177.291 312.483 177.265C312.414 177.239 312.35 177.197 312.296 177.142C312.242 177.087 312.199 177.021 312.168 176.947C312.138 176.873 312.122 176.793 312.121 176.712C312.12 176.631 312.134 176.55 312.162 176.475C312.19 176.4 312.232 176.332 312.284 176.276C312.337 176.22 312.399 176.176 312.468 176.147C312.761 176.028 313.075 175.981 313.386 176.009C313.697 176.038 313.999 176.142 314.271 176.313C317.985 178.263 325.326 189.914 328.996 204.574C331.626 204.574 335.683 204.181 336.67 204.086C337.894 202.469 346.888 190.01 343.529 176.373C343.509 176.298 343.503 176.219 343.512 176.142C343.52 176.065 343.543 175.99 343.578 175.922C343.613 175.854 343.66 175.795 343.716 175.748C343.772 175.701 343.836 175.667 343.904 175.648C344.041 175.607 344.186 175.629 344.309 175.707C344.431 175.784 344.521 175.913 344.559 176.064C348.305 191.234 337.443 204.919 337.325 205.049C337.283 205.107 337.231 205.155 337.172 205.189C337.113 205.224 337.048 205.245 336.982 205.251C336.928 205.251 331.572 205.775 328.588 205.775Z" fill="#407BFF"/>
<path d="M346.373 214.168C340.523 202.03 338.13 201.173 337.089 197.274C337.878 195.093 339.003 193.082 340.416 191.329C339.708 191.103 338.184 190.771 337.196 190.568C337.303 190.033 337.422 189.51 337.529 188.999C336.454 188.866 335.368 188.922 334.309 189.165V187.977C332.946 187.648 331.546 187.548 330.155 187.679C330.277 188.242 330.395 188.813 330.51 189.391C329.436 189.617 327.805 189.986 327.021 190.236C328.544 192.146 329.662 194.408 330.295 196.858C327.14 202.862 314.883 241.454 334.824 244.414C354.766 247.375 352.211 226.319 346.373 214.168Z" fill="#407BFF"/>
<path opacity="0.4" d="M346.373 214.168C340.523 202.03 338.13 201.173 337.089 197.274C337.878 195.093 339.003 193.082 340.416 191.329C339.708 191.103 338.184 190.771 337.196 190.568C337.303 190.033 337.422 189.51 337.529 188.999C336.454 188.866 335.368 188.922 334.309 189.165V187.977C332.946 187.648 331.546 187.548 330.155 187.679C330.277 188.242 330.395 188.813 330.51 189.391C329.436 189.617 327.805 189.986 327.021 190.236C328.544 192.146 329.662 194.408 330.295 196.858C327.14 202.862 314.883 241.454 334.824 244.414C354.766 247.375 352.211 226.319 346.373 214.168Z" fill="white"/>
<path d="M329.479 195.705C329.354 196.317 329.3 196.944 329.318 197.571C329.318 198.011 330.391 198.308 331.582 198.439C332.774 198.57 337.775 198.784 337.614 198.166C337.453 197.547 337.861 196.703 337.882 196.18C337.904 195.657 335.897 195.633 334.212 195.705C332.527 195.776 329.811 195.039 329.479 195.705Z" fill="#407BFF"/>
<path d="M317.877 240.396H318.864C319.057 240.396 319.208 240.277 319.197 240.146L318.735 235.39C318.735 235.248 318.553 235.141 318.349 235.141H317.394C317.201 235.141 317.05 235.248 317.061 235.39L317.523 240.146C317.501 240.3 317.673 240.396 317.877 240.396Z" fill="#407BFF"/>
<path d="M135.765 64.0244C135.765 66.085 135.438 67.8623 134.783 69.3564C134.129 70.8408 133.211 72.0029 132.029 72.8428L135.838 75.8311L133.919 77.6035L129.422 74.0293C128.719 74.2051 127.977 74.293 127.195 74.293C125.516 74.293 124.026 73.8828 122.728 73.0625C121.429 72.2324 120.418 71.0557 119.695 69.5322C118.982 67.999 118.616 66.2266 118.597 64.2148V62.6768C118.597 60.626 118.953 58.8145 119.666 57.2422C120.379 55.6699 121.385 54.4688 122.684 53.6387C123.992 52.7988 125.486 52.3789 127.166 52.3789C128.885 52.3789 130.394 52.7939 131.692 53.624C133.001 54.4541 134.007 55.6504 134.71 57.2129C135.413 58.7656 135.765 60.582 135.765 62.6621V64.0244ZM132.952 62.6475C132.952 60.1377 132.449 58.2041 131.443 56.8467C130.447 55.4795 129.021 54.7959 127.166 54.7959C125.398 54.7959 124.002 55.4746 122.977 56.832C121.961 58.1797 121.438 60.0547 121.409 62.457V64.0244C121.409 66.4658 121.917 68.3896 122.933 69.7959C123.958 71.2021 125.379 71.9053 127.195 71.9053C129.012 71.9053 130.418 71.2461 131.414 69.9277C132.41 68.5996 132.923 66.7002 132.952 64.2295V62.6475ZM155.115 52.6719V67.1738C155.105 69.1855 154.471 70.8311 153.211 72.1104C151.961 73.3896 150.262 74.1074 148.113 74.2637L147.366 74.293C145.032 74.293 143.172 73.6631 141.785 72.4033C140.398 71.1436 139.695 69.4102 139.676 67.2031V52.6719H142.459V67.1152C142.459 68.6582 142.884 69.8594 143.733 70.7188C144.583 71.5684 145.794 71.9932 147.366 71.9932C148.958 71.9932 150.174 71.5684 151.014 70.7188C151.863 69.8691 152.288 68.6729 152.288 67.1299V52.6719H155.115ZM162.571 74H159.759V52.6719H162.571V74ZM183.416 67.2324C183.152 69.4883 182.317 71.2314 180.911 72.4619C179.515 73.6826 177.654 74.293 175.33 74.293C172.811 74.293 170.789 73.3896 169.266 71.583C167.752 69.7764 166.995 67.3594 166.995 64.332V62.2812C166.995 60.2988 167.347 58.5557 168.05 57.0518C168.763 55.5479 169.769 54.3955 171.067 53.5947C172.366 52.7842 173.87 52.3789 175.579 52.3789C177.845 52.3789 179.661 53.0137 181.028 54.2832C182.396 55.543 183.191 57.291 183.416 59.5273H180.589C180.345 57.8281 179.812 56.5977 178.992 55.8359C178.182 55.0742 177.044 54.6934 175.579 54.6934C173.782 54.6934 172.371 55.3574 171.346 56.6855C170.33 58.0137 169.822 59.9033 169.822 62.3545V64.4199C169.822 66.7344 170.306 68.5752 171.272 69.9424C172.239 71.3096 173.592 71.9932 175.33 71.9932C176.893 71.9932 178.089 71.6416 178.919 70.9385C179.759 70.2256 180.315 68.9902 180.589 67.2324H183.416ZM192.688 64.083L190.081 66.793V74H187.269V52.6719H190.081V63.2188L199.559 52.6719H202.957L194.563 62.0908L203.616 74H200.247L192.688 64.083ZM210.354 66.0459H203.206V63.834H210.354V66.0459ZM229.72 64.0244C229.72 66.085 229.393 67.8623 228.738 69.3564C228.084 70.8408 227.166 72.0029 225.984 72.8428L229.793 75.8311L227.874 77.6035L223.377 74.0293C222.674 74.2051 221.932 74.293 221.15 74.293C219.471 74.293 217.981 73.8828 216.683 73.0625C215.384 72.2324 214.373 71.0557 213.65 69.5322C212.938 67.999 212.571 66.2266 212.552 64.2148V62.6768C212.552 60.626 212.908 58.8145 213.621 57.2422C214.334 55.6699 215.34 54.4688 216.639 53.6387C217.947 52.7988 219.441 52.3789 221.121 52.3789C222.84 52.3789 224.349 52.7939 225.647 53.624C226.956 54.4541 227.962 55.6504 228.665 57.2129C229.368 58.7656 229.72 60.582 229.72 62.6621V64.0244ZM226.907 62.6475C226.907 60.1377 226.404 58.2041 225.398 56.8467C224.402 55.4795 222.977 54.7959 221.121 54.7959C219.354 54.7959 217.957 55.4746 216.932 56.832C215.916 58.1797 215.394 60.0547 215.364 62.457V64.0244C215.364 66.4658 215.872 68.3896 216.888 69.7959C217.913 71.2021 219.334 71.9053 221.15 71.9053C222.967 71.9053 224.373 71.2461 225.369 69.9277C226.365 68.5996 226.878 66.7002 226.907 64.2295V62.6475ZM249.07 52.6719V67.1738C249.061 69.1855 248.426 70.8311 247.166 72.1104C245.916 73.3896 244.217 74.1074 242.068 74.2637L241.321 74.293C238.987 74.293 237.127 73.6631 235.74 72.4033C234.354 71.1436 233.65 69.4102 233.631 67.2031V52.6719H236.414V67.1152C236.414 68.6582 236.839 69.8594 237.688 70.7188C238.538 71.5684 239.749 71.9932 241.321 71.9932C242.913 71.9932 244.129 71.5684 244.969 70.7188C245.818 69.8691 246.243 68.6729 246.243 67.1299V52.6719H249.07ZM256.526 74H253.714V52.6719H256.526V74ZM263.792 71.7002H275.994V74H260.467V71.8906L272.156 54.9863H260.657V52.6719H275.525V54.7373L263.792 71.7002Z" fill="white"/>
<defs>
<radialGradient id="paint0_diamond_336_2" cx="0" cy="0" r="1" gradientUnits="userSpaceOnUse" gradientTransform="translate(215.098 167.938) rotate(143.729) scale(347.363 186.083)">
<stop stop-color="#26C0A5"/>
<stop offset="0.0001" stop-color="#02AFE5"/>
<stop offset="1" stop-color="#43E8B2"/>
</radialGradient>
</defs>
</svg>
