<?xml version="1.0" encoding="UTF-8"?>
<svg xmlns="http://www.w3.org/2000/svg" xmlns:xlink="http://www.w3.org/1999/xlink" width="32px" height="32px" viewBox="0 0 32 32" version="1.1">
<g id="surface1">
<path style=" stroke:none;fill-rule:nonzero;fill:rgb(87.843137%,30.980392%,37.254902%);fill-opacity:1;" d="M 0 16 C 0 7.164062 7.164062 0 16 0 C 24.835938 0 32 7.164062 32 16 C 32 24.835938 24.835938 32 16 32 C 7.164062 32 0 24.835938 0 16 Z M 0 16 "/>
<path style=" stroke:none;fill-rule:nonzero;fill:rgb(100%,100%,100%);fill-opacity:1;" d="M 24.738281 13.304688 L 7.261719 13.304688 C 7.007812 13.304688 6.796875 13.511719 6.796875 13.769531 L 6.796875 18.230469 C 6.796875 18.488281 7.007812 18.695312 7.261719 18.695312 L 24.738281 18.695312 C 24.992188 18.695312 25.203125 18.488281 25.203125 18.230469 L 25.203125 13.769531 C 25.203125 13.511719 24.992188 13.304688 24.738281 13.304688 Z M 24.738281 13.304688 "/>
</g>
</svg>
