<svg xmlns="http://www.w3.org/2000/svg" width="33" height="20" viewBox="0 0 33 20">
  <g id="Polygon_2" data-name="Polygon 2" fill="none">
    <path d="M14.957,1.87a2,2,0,0,1,3.085,0L30.3,16.727A2,2,0,0,1,28.757,20H4.243A2,2,0,0,1,2.7,16.727Z" stroke="none"/>
    <path d="M 16.49986457824707 3.14293098449707 L 16.5 3.142765045166016 L 4.242782592773438 17.99999046325684 C 4.242782592773438 17.99999237060547 4.242782592773438 17.9999942779541 4.242780685424805 17.99999618530273 L 28.75720977783203 18.0000057220459 L 16.49986457824707 3.14293098449707 M 16.49999809265137 1.142757415771484 C 17.07138252258301 1.142757415771484 17.64276504516602 1.385169982910156 18.04273986816406 1.8699951171875 L 30.29995918273926 16.72723579406738 C 31.37611961364746 18.03166580200195 30.44827079772949 19.99999618530273 28.7572193145752 19.99999618530273 L 4.242780685424805 19.99999618530273 C 2.551719665527344 19.99999618530273 1.623870849609375 18.03166580200195 2.700029373168945 16.72723579406738 L 14.95725059509277 1.8699951171875 C 15.35722923278809 1.385169982910156 15.92861557006836 1.142757415771484 16.49999809265137 1.142757415771484 Z" stroke="none" fill="#3ba3fb"/>
  </g>
</svg>
